<svg width="21" height="16" viewBox="0 0 21 16" fill="none" xmlns="http://www.w3.org/2000/svg">
<path d="M20.8125 14.7188C20.9062 14.8125 21 14.9688 21 15.125C21 15.25 20.9375 15.3438 20.875 15.4375L20.5625 15.8125C20.4688 15.9375 20.3438 16 20.1562 16C20.0625 16 19.9375 15.9688 19.875 15.9062L1.1875 1.28125C1.0625 1.21875 0.96875 1.0625 0.96875 0.90625C0.96875 0.78125 1.03125 0.6875 1.09375 0.59375L1.40625 0.1875C1.5 0.09375 1.625 0.03125 1.8125 0.03125C1.90625 0.03125 2.03125 0.0625 2.125 0.125L20.8125 14.7188ZM10.25 4.59375C10.5 4.53125 10.75 4.53125 11 4.5C12.875 4.5 14.4062 6 14.4688 7.875L10.25 4.59375ZM11.7188 11.4375C11.4688 11.5 11.2188 11.5 11 11.5C9.09375 11.5 7.5625 10.0312 7.5 8.15625L11.7188 11.4375ZM11 3.5C10.375 3.5 9.75 3.59375 9.15625 3.75L7.71875 2.59375C8.75 2.21875 9.84375 2 11 2C14.8125 2 18.1875 4.25 19.875 7.5625C19.9375 7.6875 20 7.84375 20 8.03125C20 8.1875 19.9375 8.34375 19.875 8.46875C19.4375 9.34375 18.875 10.125 18.2188 10.8125L17.0312 9.90625C17.5938 9.34375 18.0312 8.71875 18.4062 8C16.9062 5.21875 14.0625 3.5 11 3.5ZM11 12.5C11.5938 12.5 12.2188 12.4375 12.8125 12.2812L14.25 13.4375C13.2188 13.7812 12.125 14 11 14C7.15625 14 3.78125 11.7812 2.09375 8.46875C2.03125 8.34375 2 8.1875 2 8C2 7.84375 2.03125 7.6875 2.09375 7.5625C2.53125 6.6875 3.09375 5.90625 3.75 5.21875L4.9375 6.125C4.375 6.6875 3.9375 7.3125 3.5625 8C5.0625 10.7812 7.90625 12.5 11 12.5Z" fill="#656565"/>
</svg>
